<svg version="1.1" xmlns="http://www.w3.org/2000/svg" viewBox="0 0 830.1932590332032 846.7324589863074" filter="invert(93%) hue-rotate(180deg)">
  <!-- svg-source:excalidraw -->

  <defs>

  </defs>
  <g stroke-linecap="round" transform="translate(166.4823215332031 16) rotate(0 68.0703125 35)"><path d="M0 0 C38.45 -1.68, 81.33 0.4, 136.14 0 M0 0 C49.17 0.71, 98.75 0.06, 136.14 0 M136.14 0 C135.36 21.32, 135.26 42.99, 136.14 70 M136.14 0 C137.44 25.66, 136.55 51.4, 136.14 70 M136.14 70 C104.01 68.52, 71.22 69.54, 0 70 M136.14 70 C88 70.67, 41.9 70.05, 0 70 M0 70 C0.28 55.44, 1.93 41.54, 0 0 M0 70 C0.78 44.58, -0.01 18.9, 0 0" stroke="#1e1e1e" stroke-width="2" fill="none"></path></g><g stroke-linecap="round" transform="translate(167.3495090332031 155) rotate(0 67.203125 35)"><path d="M0 0 C35.68 2.61, 74.35 2.23, 134.41 0 M0 0 C42.09 0, 83.48 0.86, 134.41 0 M134.41 0 C134.02 24.04, 134.64 52.13, 134.41 70 M134.41 0 C134 26.74, 133.78 53.28, 134.41 70 M134.41 70 C105.35 71.63, 79.03 71.55, 0 70 M134.41 70 C89.04 69.93, 42.78 68.23, 0 70 M0 70 C0.05 50.39, 0.68 28.1, 0 0 M0 70 C0.27 50.04, 0.13 30.91, 0 0" stroke="#1e1e1e" stroke-width="2" fill="none"></path></g><g stroke-linecap="round" transform="translate(197.0526340332031 299) rotate(0 37.5 35)"><path d="M0 0 C28.38 1.5, 54.69 0.6, 75 0 M0 0 C17.9 -0.65, 37.5 0.6, 75 0 M75 0 C73.26 15.48, 75.99 30.91, 75 70 M75 0 C75.31 19.35, 74.92 38.74, 75 70 M75 70 C52.16 68.63, 28.18 70.14, 0 70 M75 70 C51.1 69.85, 24.71 70.29, 0 70 M0 70 C1.87 50.43, 1.18 29.33, 0 0 M0 70 C-0.58 50.51, 0.13 31.9, 0 0" stroke="#1e1e1e" stroke-width="2" fill="none"></path></g><g stroke-linecap="round" transform="translate(80.97841528320312 733.9336457413233) rotate(0 48.75 37.932586669921875)"><path d="M0 0 C23.76 0.49, 45.45 -1.82, 97.5 0 M0 0 C22.43 0.84, 46.72 -0.08, 97.5 0 M97.5 0 C98.47 19.56, 99.29 35.96, 97.5 75.87 M97.5 0 C96.77 27.52, 96.32 56.39, 97.5 75.87 M97.5 75.87 C63.37 77.36, 31.48 76.96, 0 75.87 M97.5 75.87 C74.06 75.7, 51.4 76.51, 0 75.87 M0 75.87 C0.61 53.1, -0.32 27.31, 0 0 M0 75.87 C-0.11 48.7, 0.75 20.23, 0 0" stroke="#1e1e1e" stroke-width="2" fill="none"></path></g><g stroke-linecap="round" transform="translate(327.8729465332031 443) rotate(0 47.5 35.5)"><path d="M0 0 C25.46 -0.29, 47.29 -1.82, 95 0 M0 0 C28.82 1.22, 56.72 -0.01, 95 0 M95 0 C95.95 23.9, 94.2 45.81, 95 71 M95 0 C94.29 18.29, 95.05 38.95, 95 71 M95 71 C75.71 71.45, 55.04 69.4, 0 71 M95 71 C63.02 70.75, 32.76 70.84, 0 71 M0 71 C0.59 49.48, -1.14 29.93, 0 0 M0 71 C0.68 49.73, -0.03 27.63, 0 0" stroke="#1e1e1e" stroke-width="2" fill="none"></path></g><g stroke-linecap="round" transform="translate(300.2245090332031 592) rotate(0 75.1484375 21.5)"><path d="M0 0 C58.05 -1.99, 114.31 -0.92, 150.3 0 M0 0 C32.94 -0.93, 64.03 0.11, 150.3 0 M150.3 0 C152.18 9.74, 151.89 19.56, 150.3 43 M150.3 0 C149.11 12.29, 150.5 23.33, 150.3 43 M150.3 43 C98.06 44.32, 42.98 44.28, 0 43 M150.3 43 C93.55 41.49, 36.8 41.6, 0 43 M0 43 C-0.46 25.39, 1.19 8.89, 0 0 M0 43 C0.84 30.51, 0.84 18.01, 0 0" stroke="#1e1e1e" stroke-width="2" fill="none"></path></g><g stroke-linecap="round" transform="translate(264.4745090332031 714.8827868412544) rotate(0 110.8984375 56.983436584472656)"><path d="M0 0 C78.54 -1.34, 158.86 -1.71, 221.8 0 M0 0 C51.88 -1.72, 105.44 -1.76, 221.8 0 M221.8 0 C222.28 40.55, 222.03 77.91, 221.8 113.97 M221.8 0 C221.33 28.83, 220.27 57.34, 221.8 113.97 M221.8 113.97 C163.72 113.63, 105.11 116.07, 0 113.97 M221.8 113.97 C162.88 114.28, 104.16 114.99, 0 113.97 M0 113.97 C-1.18 77.67, -0.51 38.5, 0 0 M0 113.97 C-0.79 80.91, -0.92 45.51, 0 0" stroke="#1e1e1e" stroke-width="2" fill="none"></path></g><g stroke-linecap="round" transform="translate(536.2713840332032 712.9999989643347) rotate(0 138.9609375 58.86623001098633)"><path d="M0 0 C100.69 1.12, 202.03 0.11, 277.92 0 M0 0 C83.16 2.05, 166.74 2.29, 277.92 0 M277.92 0 C280.33 43.07, 278.55 86.28, 277.92 117.73 M277.92 0 C277.21 27.66, 277.31 56.69, 277.92 117.73 M277.92 117.73 C179.95 118.77, 85.14 117.82, 0 117.73 M277.92 117.73 C220.37 117.47, 163.31 117.71, 0 117.73 M0 117.73 C1.51 75.01, -0.05 31.78, 0 0 M0 117.73 C-0.15 75.17, -1.67 32.22, 0 0" stroke="#1e1e1e" stroke-width="2" fill="none"></path></g><g mask="url(#mask-XMMRRkVg7oNo64yJGjmyt)" stroke-linecap="round"><g transform="translate(198.38591528320313 82.5) rotate(0 -20.528000000000006 34.227000000000004)"><path d="M-0.76 0.04 C-7.8 6.01, -41.38 23.72, -42.08 35.25 C-42.77 46.78, -10.94 63.79, -4.93 69.2 M1.04 -0.98 C-5.65 5.18, -38.78 25.02, -39.9 36.39 C-41.02 47.77, -11.28 61.91, -5.69 67.25" stroke="#1e1e1e" stroke-width="2" fill="none"></path></g><g transform="translate(198.38591528320313 82.5) rotate(0 -20.528000000000006 34.227000000000004)"><path d="M-29.21 61.25 C-21.82 61.58, -15.77 65.17, -5.69 67.25 M-29.21 61.25 C-20.62 62.91, -11.79 66.45, -5.69 67.25" stroke="#1e1e1e" stroke-width="2" fill="none"></path></g><g transform="translate(198.38591528320313 82.5) rotate(0 -20.528000000000006 34.227000000000004)"><path d="M-19.85 47.53 C-15.45 52.09, -12.34 59.98, -5.69 67.25 M-19.85 47.53 C-14.77 54.1, -9.34 62.61, -5.69 67.25" stroke="#1e1e1e" stroke-width="2" fill="none"></path></g></g><mask id="mask-XMMRRkVg7oNo64yJGjmyt"><rect x="0" y="0" fill="#fff" width="338.9419152832031" height="251.954"></rect><rect x="106.10596203613281" y="108.5" fill="#000" width="102.44790649414062" height="20" opacity="1"></rect></mask><g mask="url(#mask-03lhhZ58gvEmnezMCOQ4W)" stroke-linecap="round"><g transform="translate(234.5529152832031 221.5) rotate(0 0 35.849999999999994)"><path d="M0.04 -1.02 C0.01 5.53, -0.87 26.57, -0.75 38.51 C-0.63 50.45, 0.74 65.05, 0.75 70.6 M-1.4 1.06 C-0.98 7.88, 1.27 28.34, 1.57 40.05 C1.86 51.77, 0.78 65.85, 0.37 71.35" stroke="#1e1e1e" stroke-width="2" fill="none"></path></g><g transform="translate(234.5529152832031 221.5) rotate(0 0 35.849999999999994)"><path d="M-4.19 55.39 C-4.56 58.34, -2 64.4, 0.37 71.35 M-4.19 55.39 C-3.88 59.07, -1.8 62.75, 0.37 71.35" stroke="#1e1e1e" stroke-width="2" fill="none"></path></g><g transform="translate(234.5529152832031 221.5) rotate(0 0 35.849999999999994)"><path d="M7.14 56.19 C3.94 58.94, 3.67 64.8, 0.37 71.35 M7.14 56.19 C5.09 59.72, 4.81 63.23, 0.37 71.35" stroke="#1e1e1e" stroke-width="2" fill="none"></path></g></g><mask id="mask-03lhhZ58gvEmnezMCOQ4W"><rect x="0" y="0" fill="#fff" width="334.5529152832031" height="394.2"></rect><rect x="194.5529152832031" y="250" fill="#000" width="80" height="20" opacity="1"></rect></mask><g mask="url(#mask-s23XBlLuncWKXYF25OSgw)" stroke-linecap="round"><g transform="translate(270.7199152832031 154.5) rotate(0 20.527500000000003 -34.227)"><path d="M-1.02 -0.75 C5.95 -6.63, 40.26 -23.85, 41.07 -35.25 C41.88 -46.66, 9.84 -63.52, 3.84 -69.18" stroke="#1e1e1e" stroke-width="2.5" fill="none" stroke-dasharray="8 10"></path></g><g transform="translate(270.7199152832031 154.5) rotate(0 20.527500000000003 -34.227)"><path d="M27.26 -62.78 C20.47 -64.48, 17.43 -67.83, 3.84 -69.18" stroke="#1e1e1e" stroke-width="2.5" fill="none"></path></g><g transform="translate(270.7199152832031 154.5) rotate(0 20.527500000000003 -34.227)"><path d="M17.67 -49.23 C13.14 -54.04, 12.37 -60.61, 3.84 -69.18" stroke="#1e1e1e" stroke-width="2.5" fill="none"></path></g></g><mask id="mask-s23XBlLuncWKXYF25OSgw"><rect x="0" y="0" fill="#fff" width="411.2749152832031" height="323.954"></rect><rect x="244.35098797607418" y="108.5" fill="#000" width="134.8478546142578" height="20" opacity="1"></rect></mask><g mask="url(#mask-JdJFNAuzGHWlRrEV2YV_k)" stroke-linecap="round"><g transform="translate(197.5529152832031 350.485) rotate(0 -56.5605 189.43200000000002)"><path d="M-0.75 0.01 C-19.49 8.92, -93.52 31.06, -112.37 52.42 C-131.22 73.78, -113.59 103.06, -113.85 128.17 C-114.11 153.27, -114.18 180.39, -113.91 203.04 C-113.65 225.68, -112.37 243.81, -112.27 264.03 C-112.17 284.25, -117.29 305.26, -113.32 324.36 C-109.34 343.46, -92.53 369.67, -88.43 378.64 M1.06 -1.03 C-17.78 8.07, -94.2 31.62, -112.93 53.38 C-131.66 75.15, -111.15 105, -111.34 129.56 C-111.53 154.13, -113.75 178.8, -114.08 200.75 C-114.41 222.71, -113.64 240.79, -113.3 261.3 C-112.95 281.8, -116.23 304.45, -112.01 323.76 C-107.79 343.08, -92.24 368.23, -87.97 377.18" stroke="#1e1e1e" stroke-width="2" fill="none"></path></g><g transform="translate(197.5529152832031 350.485) rotate(0 -56.5605 189.43200000000002)"><path d="M-110.24 357.08 C-103.64 364.56, -98.73 368.2, -87.97 377.18 M-110.24 357.08 C-102.7 364.12, -96.61 370.26, -87.97 377.18" stroke="#1e1e1e" stroke-width="2" fill="none"></path></g><g transform="translate(197.5529152832031 350.485) rotate(0 -56.5605 189.43200000000002)"><path d="M-92.12 347.47 C-91.09 357.75, -91.68 364.3, -87.97 377.18 M-92.12 347.47 C-90.31 357.59, -89.88 366.73, -87.97 377.18" stroke="#1e1e1e" stroke-width="2" fill="none"></path></g></g><mask id="mask-JdJFNAuzGHWlRrEV2YV_k"><rect x="0" y="0" fill="#fff" width="410.1739152832031" height="830.349"></rect><rect x="16" y="543" fill="#000" width="136.86383056640625" height="20" opacity="1"></rect></mask><g mask="url(#mask-UJm0U7e_FwWDFQlU-wwhW)" stroke-linecap="round"><g transform="translate(272.0529152832031 351.673) rotate(0 51.66 42.76349999999999)"><path d="M0.01 0.75 C17.22 9.47, 84.98 37.6, 102.22 51.6 C119.47 65.59, 103.2 78.94, 103.47 84.74 M-1.44 0.09 C16.21 9.02, 86.99 38.49, 104.36 52.75 C121.73 67.01, 102.79 80.39, 102.79 85.64" stroke="#1e1e1e" stroke-width="2" fill="none"></path></g><g transform="translate(272.0529152832031 351.673) rotate(0 51.66 42.76349999999999)"><path d="M105.19 69.21 C105.6 71.23, 103.04 76.49, 102.79 85.64 M105.19 69.21 C105.4 72.94, 104.72 76.68, 102.79 85.64" stroke="#1e1e1e" stroke-width="2" fill="none"></path></g><g transform="translate(272.0529152832031 351.673) rotate(0 51.66 42.76349999999999)"><path d="M115.18 74.6 C113.48 75.46, 108.77 79.56, 102.79 85.64 M115.18 74.6 C113.03 77.13, 110.01 79.62, 102.79 85.64" stroke="#1e1e1e" stroke-width="2" fill="none"></path></g></g><mask id="mask-UJm0U7e_FwWDFQlU-wwhW"><rect x="0" y="0" fill="#fff" width="475.3729152832031" height="538.2"></rect><rect x="345.2449321899414" y="394" fill="#000" width="60.25596618652344" height="20" opacity="1"></rect></mask><g mask="url(#mask-ZiG9NHLUWf8mZZEClGBCo)" stroke-linecap="round"><g transform="translate(375.3729152832031 514.5) rotate(0 0 35.85000000000002)"><path d="M0.75 -1.1 C0.75 5.34, -0.47 26.43, -0.73 38.65 C-0.99 50.87, -1.05 66.54, -0.79 72.22 M-0.32 0.94 C0.14 7.6, 1.26 28.74, 1.6 40.27 C1.93 51.8, 1.7 65.08, 1.69 70.15" stroke="#1e1e1e" stroke-width="2" fill="none"></path></g><g transform="translate(375.3729152832031 514.5) rotate(0 0 35.85000000000002)"><path d="M-3.87 54.51 C-4.07 57.18, -1.02 60.81, 1.69 70.15 M-3.87 54.51 C-1.99 60.42, -0.18 65.05, 1.69 70.15" stroke="#1e1e1e" stroke-width="2" fill="none"></path></g><g transform="translate(375.3729152832031 514.5) rotate(0 0 35.85000000000002)"><path d="M7.48 54.6 C4.59 57.32, 4.94 60.93, 1.69 70.15 M7.48 54.6 C5.47 60.57, 3.37 65.18, 1.69 70.15" stroke="#1e1e1e" stroke-width="2" fill="none"></path></g></g><mask id="mask-ZiG9NHLUWf8mZZEClGBCo"><rect x="0" y="0" fill="#fff" width="475.3729152832031" height="687.2"></rect><rect x="301.28497888183585" y="543" fill="#000" width="148.17587280273438" height="20" opacity="1"></rect></mask><g mask="url(#mask-AWuNy8fkJ7Sh_0BpfJGaA)" stroke-linecap="round"><g transform="translate(375.3729152832031 635.5) rotate(0 0 36.791499999999985)"><path d="M-1.1 -0.73 C-1.07 5.43, -0.12 25.18, 0.15 37.71 C0.42 50.24, 0.38 68.49, 0.52 74.43 M0.53 1.5 C0.41 7.73, -0.63 26.99, -0.72 38.83 C-0.8 50.67, -0.39 66.61, 0.03 72.53" stroke="#1e1e1e" stroke-width="2" fill="none"></path></g><g transform="translate(375.3729152832031 635.5) rotate(0 0 36.791499999999985)"><path d="M-6.74 56.35 C-5.67 61.51, -3.72 66.91, 0.03 72.53 M-6.74 56.35 C-3.48 62.11, -1.75 67.92, 0.03 72.53" stroke="#1e1e1e" stroke-width="2" fill="none"></path></g><g transform="translate(375.3729152832031 635.5) rotate(0 0 36.791499999999985)"><path d="M5.24 55.79 C2.71 61, 1.05 66.58, 0.03 72.53 M5.24 55.79 C4.07 61.74, 1.36 67.75, 0.03 72.53" stroke="#1e1e1e" stroke-width="2" fill="none"></path></g></g><mask id="mask-AWuNy8fkJ7Sh_0BpfJGaA"><rect x="0" y="0" fill="#fff" width="475.3729152832031" height="810.083"></rect><rect x="291.5169735107421" y="664" fill="#000" width="167.71188354492188" height="20" opacity="1"></rect></mask><g stroke-linecap="round"><g transform="translate(450.5209152832031 629.162) rotate(0 112.3555 39.019000000000005)"><path d="M-0.73 0.15 C36.47 7.89, 186.2 32.21, 223.92 45.36 C261.63 58.51, 225.46 73.47, 225.56 79.05 M1.09 -0.81 C38.6 6.67, 188.86 30.5, 226.22 43.51 C263.58 56.52, 225.5 71.7, 225.24 77.25" stroke="#1e1e1e" stroke-width="2" fill="none"></path></g><g transform="translate(450.5209152832031 629.162) rotate(0 112.3555 39.019000000000005)"><path d="M232.37 62.26 C229.86 66.55, 227.79 74.25, 225.24 77.25 M232.37 62.26 C229.37 67.92, 226.44 73.36, 225.24 77.25" stroke="#1e1e1e" stroke-width="2" fill="none"></path></g><g transform="translate(450.5209152832031 629.162) rotate(0 112.3555 39.019000000000005)"><path d="M240.34 70.35 C235.02 71.66, 230.06 76.43, 225.24 77.25 M240.34 70.35 C234.28 72.95, 228.29 75.28, 225.24 77.25" stroke="#1e1e1e" stroke-width="2" fill="none"></path></g></g><mask></mask><g mask="url(#mask-4ERC5ZdyEQY72glqplxGE)" stroke-linecap="round"><g transform="translate(303.6749152832031 635.5) rotate(0 -76.843 46.92450000000002)"><path d="M0.15 -0.79 C-21.02 5.89, -102.66 23.61, -128.13 39.35 C-153.6 55.09, -148.55 84.63, -152.67 93.65" stroke="#1e1e1e" stroke-width="2.5" fill="none" stroke-dasharray="8 10"></path></g><g transform="translate(303.6749152832031 635.5) rotate(0 -76.843 46.92450000000002)"><path d="M-157.75 64.09 C-158.19 71.12, -154.39 78.12, -152.67 93.65" stroke="#1e1e1e" stroke-width="2.5" fill="none"></path></g><g transform="translate(303.6749152832031 635.5) rotate(0 -76.843 46.92450000000002)"><path d="M-137.56 67.74 C-142.19 74.03, -142.61 80.27, -152.67 93.65" stroke="#1e1e1e" stroke-width="2.5" fill="none"></path></g></g><mask id="mask-4ERC5ZdyEQY72glqplxGE"><rect x="0" y="0" fill="#fff" width="558.3609152832031" height="830.349"></rect><rect x="113.96097332763668" y="664" fill="#000" width="122.12788391113281" height="20" opacity="1"></rect></mask><g transform="translate(182.60068395996092 31) rotate(0 51.95195007324219 20)"><text x="51.95195007324219" y="0" font-family="Virgil, Segoe UI Emoji" font-size="16px" fill="#1e1e1e" text-anchor="middle" style="white-space: pre;" direction="ltr" dominant-baseline="text-before-edge">客户端</text><text x="51.95195007324219" y="20" font-family="Virgil, Segoe UI Emoji" font-size="16px" fill="#1e1e1e" text-anchor="middle" style="white-space: pre;" direction="ltr" dominant-baseline="text-before-edge">:5080 / :5082</text></g><g transform="translate(185.22464636230467 170) rotate(0 49.32798767089844 20)"><text x="49.32798767089844" y="0" font-family="Virgil, Segoe UI Emoji" font-size="16px" fill="#1e1e1e" text-anchor="middle" style="white-space: pre;" direction="ltr" dominant-baseline="text-before-edge">Router</text><text x="49.32798767089844" y="20" font-family="Virgil, Segoe UI Emoji" font-size="16px" fill="#1e1e1e" text-anchor="middle" style="white-space: pre;" direction="ltr" dominant-baseline="text-before-edge">无状态 · 限流</text></g><g transform="translate(210.5526340332031 314) rotate(0 24 20)"><text x="24" y="0" font-family="Virgil, Segoe UI Emoji" font-size="16px" fill="#1e1e1e" text-anchor="middle" style="white-space: pre;" direction="ltr" dominant-baseline="text-before-edge">Intake</text><text x="24" y="20" font-family="Virgil, Segoe UI Emoji" font-size="16px" fill="#1e1e1e" text-anchor="middle" style="white-space: pre;" direction="ltr" dominant-baseline="text-before-edge">有状态</text></g><g transform="translate(93.66443518066406 761.8662324112452) rotate(0 36.06398010253906 10)"><text x="36.06398010253906" y="0" font-family="Virgil, Segoe UI Emoji" font-size="16px" fill="#1e1e1e" text-anchor="middle" style="white-space: pre;" direction="ltr" dominant-baseline="text-before-edge">WAL 落盘</text></g><g transform="translate(343.3729465332031 458.5) rotate(0 32 20)"><text x="32" y="0" font-family="Virgil, Segoe UI Emoji" font-size="16px" fill="#1e1e1e" text-anchor="middle" style="white-space: pre;" direction="ltr" dominant-baseline="text-before-edge">内存缓冲</text><text x="32" y="20" font-family="Virgil, Segoe UI Emoji" font-size="16px" fill="#1e1e1e" text-anchor="middle" style="white-space: pre;" direction="ltr" dominant-baseline="text-before-edge">按 seq</text></g><g transform="translate(320.21297338867186 603.5) rotate(0 55.15997314453125 10)"><text x="55.15997314453125" y="0" font-family="Virgil, Segoe UI Emoji" font-size="16px" fill="#1e1e1e" text-anchor="middle" style="white-space: pre;" direction="ltr" dominant-baseline="text-before-edge">后台 flush 循环</text></g><g transform="translate(287.9010455932617 751.8662234257271) rotate(0 87.4719009399414 20)"><text x="87.4719009399414" y="0" font-family="Virgil, Segoe UI Emoji" font-size="16px" fill="#1e1e1e" text-anchor="middle" style="white-space: pre;" direction="ltr" dominant-baseline="text-before-edge">对象存储</text><text x="87.4719009399414" y="20" font-family="Virgil, Segoe UI Emoji" font-size="16px" fill="#1e1e1e" text-anchor="middle" style="white-space: pre;" direction="ltr" dominant-baseline="text-before-edge">local / s3 / azure / gcs</text></g><g transform="translate(564.944433959961 751.8662289753211) rotate(0 110.28788757324219 20)"><text x="110.28788757324219" y="0" font-family="Virgil, Segoe UI Emoji" font-size="16px" fill="#1e1e1e" text-anchor="middle" style="white-space: pre;" direction="ltr" dominant-baseline="text-before-edge">Postgres：FileMeta</text><text x="110.28788757324219" y="20" font-family="Virgil, Segoe UI Emoji" font-size="16px" fill="#1e1e1e" text-anchor="middle" style="white-space: pre;" direction="ltr" dominant-baseline="text-before-edge">time_range · rows · min/max</text></g><g transform="translate(106.10596203613278 108.5) rotate(0 71.75531606303717 8.108128024570647)"><text x="51.22395324707031" y="0" font-family="Virgil, Segoe UI Emoji" font-size="16px" fill="#1e1e1e" text-anchor="middle" style="white-space: pre;" direction="ltr" dominant-baseline="text-before-edge">HTTP / gRPC</text></g><g transform="translate(194.5529152832031 250) rotate(0 40.10955471440887 6.66367179798894)"><text x="40" y="0" font-family="Virgil, Segoe UI Emoji" font-size="16px" fill="#1e1e1e" text-anchor="middle" style="white-space: pre;" direction="ltr" dominant-baseline="text-before-edge">一致性哈希</text></g><g transform="translate(244.35098797607418 108.5) rotate(0 46.399605459784624 11.032581976011407)"><text x="67.4239273071289" y="0" font-family="Virgil, Segoe UI Emoji" font-size="16px" fill="#1e1e1e" text-anchor="middle" style="white-space: pre;" direction="ltr" dominant-baseline="text-before-edge">429 + Retry-After</text></g><g transform="translate(16 543) rotate(0 121.53534719501654 -3.709439453335449)"><text x="68.43191528320312" y="0" font-family="Virgil, Segoe UI Emoji" font-size="16px" fill="#1e1e1e" text-anchor="middle" style="white-space: pre;" direction="ltr" dominant-baseline="text-before-edge">1 · 写 WAL (fsync)</text></g><g transform="translate(345.2449321899413 394) rotate(0 -18.066486379108312 0.5389949057400258)"><text x="30.12798309326172" y="0" font-family="Virgil, Segoe UI Emoji" font-size="16px" fill="#1e1e1e" text-anchor="middle" style="white-space: pre;" direction="ltr" dominant-baseline="text-before-edge">2 · 缓冲</text></g><g transform="translate(301.28497888183585 543) rotate(0 74.49743166390098 7.0628971707076005)"><text x="74.08793640136719" y="0" font-family="Virgil, Segoe UI Emoji" font-size="16px" fill="#1e1e1e" text-anchor="middle" style="white-space: pre;" direction="ltr" dominant-baseline="text-before-edge">flush_interval / 阈值</text></g><g transform="translate(291.5169735107421 664) rotate(0 83.5732657423988 8.350827225759588)"><text x="83.85594177246094" y="0" font-family="Virgil, Segoe UI Emoji" font-size="16px" fill="#1e1e1e" text-anchor="middle" style="white-space: pre;" direction="ltr" dominant-baseline="text-before-edge">snapshot：列式 + 侧车</text></g><g transform="translate(113.96097332763671 664) rotate(0 113.45545659844578 17.930826429918397)"><text x="61.063941955566406" y="0" font-family="Virgil, Segoe UI Emoji" font-size="16px" fill="#1e1e1e" text-anchor="middle" style="white-space: pre;" direction="ltr" dominant-baseline="text-before-edge">seal + 截断 WAL</text></g></svg>