<svg xmlns="http://www.w3.org/2000/svg" viewBox="0 0 980 472" width="980" height="472" role="img" aria-label="MoleSignal architecture overview" font-family="Inter, -apple-system, 'Segoe UI', 'PingFang SC', 'Noto Sans CJK SC', 'Microsoft YaHei', sans-serif">
<defs>
<marker id="arrow" viewBox="0 0 10 10" refX="9" refY="5" markerWidth="7" markerHeight="7" orient="auto-start-reverse"><path d="M0 0L10 5L0 10z" fill="#9CA3AF"/></marker>
</defs>
<rect x="16" y="64" width="214" height="396" rx="14" fill="#F5F6FF" stroke="#C7CCF5" stroke-width="1.2"/>
<text x="123" y="92" font-size="14" font-weight="600" fill="#4F60E0" text-anchor="middle">Telemetry senders</text>
<rect x="32" y="112" width="182" height="52" rx="10" fill="#FFFFFF" stroke="#D1D5DB" stroke-width="1.2"/>
<text x="123" y="143" font-size="13" font-weight="500" fill="#1F2937" text-anchor="middle">OTLP HTTP and gRPC</text>
<rect x="32" y="180" width="182" height="52" rx="10" fill="#FFFFFF" stroke="#D1D5DB" stroke-width="1.2"/>
<text x="123" y="211" font-size="13" font-weight="500" fill="#1F2937" text-anchor="middle">Prometheus remote_write</text>
<rect x="32" y="248" width="182" height="52" rx="10" fill="#FFFFFF" stroke="#D1D5DB" stroke-width="1.2"/>
<text x="123" y="279" font-size="13" font-weight="500" fill="#1F2937" text-anchor="middle">Loki, Elasticsearch, Vector</text>
<rect x="32" y="316" width="182" height="52" rx="10" fill="#FFFFFF" stroke="#D1D5DB" stroke-width="1.2"/>
<text x="123" y="347" font-size="13" font-weight="500" fill="#1F2937" text-anchor="middle">Native JSON over HTTP</text>
<rect x="32" y="384" width="182" height="52" rx="10" fill="#FFFFFF" stroke="#D1D5DB" stroke-width="1.2"/>
<text x="123" y="415" font-size="13" font-weight="500" fill="#1F2937" text-anchor="middle">Browser and mobile RUM</text>
<rect x="380" y="12" width="330" height="40" rx="10" fill="#F3F4F6" stroke="#D1D5DB" stroke-width="1.2"/>
<text x="545" y="38" font-size="13" font-weight="500" fill="#6B7280" text-anchor="middle">Users, API clients, MCP clients</text>
<line x1="545" y1="52" x2="545" y2="88" stroke="#9CA3AF" stroke-width="1.6" marker-end="url(#arrow)"/>
<rect x="262" y="88" width="536" height="372" rx="16" fill="#F5F6FF" stroke="#4F60E0" stroke-width="1.6"/>
<text x="530" y="114" font-size="14" font-weight="600" fill="#4F60E0" text-anchor="middle">MoleSignal  (one binary, roles selected by configuration)</text>
<rect x="282" y="130" width="300" height="30" rx="8" fill="#FFFFFF" stroke="#D1D5DB" stroke-width="1.2"/>
<text x="432" y="150" font-size="12.5" font-weight="500" fill="#6B7280" text-anchor="middle">HTTP API and web UI  :5080</text>
<rect x="594" y="130" width="184" height="30" rx="8" fill="#FFFFFF" stroke="#D1D5DB" stroke-width="1.2"/>
<text x="686" y="150" font-size="12.5" font-weight="500" fill="#6B7280" text-anchor="middle">OTLP gRPC  :4317</text>
<rect x="282" y="190" width="220" height="64" rx="10" fill="#4F60E0" stroke="#4F60E0" stroke-width="1.2"/>
<text x="392.0" y="219.0" font-size="14.5" font-weight="600" fill="#FFFFFF" text-anchor="middle">Intake</text>
<text x="392.0" y="238.0" font-size="11.5" font-weight="400" fill="#FFFFFF" text-anchor="middle">validate · mask · pipeline</text>
<rect x="558" y="190" width="220" height="64" rx="10" fill="#FFFFFF" stroke="#D1D5DB" stroke-width="1.2"/>
<text x="668.0" y="219.0" font-size="14.5" font-weight="600" fill="#1F2937" text-anchor="middle">WAL and buffer</text>
<text x="668.0" y="238.0" font-size="11.5" font-weight="400" fill="#6B7280" text-anchor="middle">durable until flushed</text>
<line x1="502" y1="222" x2="556" y2="222" stroke="#9CA3AF" stroke-width="1.6" marker-end="url(#arrow)"/>
<rect x="282" y="290" width="220" height="64" rx="10" fill="#4F60E0" stroke="#4F60E0" stroke-width="1.2"/>
<text x="392.0" y="319.0" font-size="14.5" font-weight="600" fill="#FFFFFF" text-anchor="middle">Query engine</text>
<text x="392.0" y="338.0" font-size="11.5" font-weight="400" fill="#FFFFFF" text-anchor="middle">SQL · PromQL · search jobs</text>
<rect x="282" y="380" width="220" height="64" rx="10" fill="#FFFFFF" stroke="#D1D5DB" stroke-width="1.2"/>
<text x="392.0" y="409.0" font-size="14.5" font-weight="600" fill="#1F2937" text-anchor="middle">Compactor</text>
<text x="392.0" y="428.0" font-size="11.5" font-weight="400" fill="#6B7280" text-anchor="middle">merge · retention · GC</text>
<rect x="558" y="380" width="220" height="64" rx="10" fill="#FFFFFF" stroke="#D1D5DB" stroke-width="1.2"/>
<text x="668.0" y="409.0" font-size="14.5" font-weight="600" fill="#1F2937" text-anchor="middle">Alert</text>
<text x="668.0" y="428.0" font-size="11.5" font-weight="400" fill="#6B7280" text-anchor="middle">rules · escalation · reports</text>
<line x1="230" y1="262" x2="262" y2="262" stroke="#9CA3AF" stroke-width="1.6" marker-end="url(#arrow)"/>
<rect x="826" y="148" width="138" height="108" rx="14" fill="#FFF6E8" stroke="#F1D3A3" stroke-width="1.2"/>
<text x="895" y="190" font-size="15" font-weight="600" fill="#1F2937" text-anchor="middle">PostgreSQL</text>
<text x="895" y="214" font-size="12" font-weight="400" fill="#6B7280" text-anchor="middle">metadata</text>
<text x="895" y="232" font-size="12" font-weight="400" fill="#6B7280" text-anchor="middle">file catalog</text>
<rect x="826" y="330" width="138" height="118" rx="14" fill="#EEF7F1" stroke="#B7DEC5" stroke-width="1.2"/>
<text x="895" y="372" font-size="15" font-weight="600" fill="#1F2937" text-anchor="middle">Object storage</text>
<text x="895" y="396" font-size="12" font-weight="400" fill="#6B7280" text-anchor="middle">Parquet</text>
<text x="895" y="414" font-size="12" font-weight="400" fill="#6B7280" text-anchor="middle">indexes</text>
<text x="895" y="432" font-size="12" font-weight="400" fill="#6B7280" text-anchor="middle">blobs</text>
<line x1="778" y1="222" x2="824" y2="202" stroke="#9CA3AF" stroke-width="1.6" marker-end="url(#arrow)"/>
<line x1="778" y1="410" x2="824" y2="392" stroke="#9CA3AF" stroke-width="1.6" marker-end="url(#arrow)"/>
<path d="M668 254 L668 336 L778 336 L824 352" fill="none" stroke="#9CA3AF" stroke-width="1.6" marker-end="url(#arrow)" stroke-dasharray="5 4"/>
<text x="700" y="330" font-size="11.5" font-weight="500" fill="#6B7280" text-anchor="start">flush</text>
<path d="M502 322 L640 322 L640 352 L824 366" fill="none" stroke="#9CA3AF" stroke-width="1.6" marker-start="url(#arrow)" stroke-dasharray="5 4"/>
<text x="520" y="316" font-size="11.5" font-weight="500" fill="#6B7280" text-anchor="start">scan</text>
</svg>