<svg version="1.1" xmlns="http://www.w3.org/2000/svg" viewBox="0 0 545.2890625 1111">
  <!-- svg-source:excalidraw -->
  
  <defs>
    
  </defs>
  <g stroke-linecap="round" transform="translate(313.3125 16) rotate(0 37.5 21.5)"><path d="M0 0 C29.69 -1.69, 57.36 -1.72, 75 0 M0 0 C21.33 0.15, 41.77 -0.07, 75 0 M75 0 C75.71 17.38, 72.9 33.46, 75 43 M75 0 C74.97 16.21, 75.68 30.2, 75 43 M75 43 C47.44 44.05, 20.77 43.77, 0 43 M75 43 C44.51 43.29, 15.58 44.41, 0 43 M0 43 C1.19 25.68, 2.22 8.1, 0 0 M0 43 C-0.82 29.84, -0.26 14.29, 0 0" stroke="#1e1e1e" stroke-width="2" fill="none"></path></g><g stroke-linecap="round" transform="translate(284.5078125 132) rotate(0 66.3046875 19)"><path d="M0 0 C49.14 -1.66, 99.73 -0.54, 132.61 0 M0 0 C29.24 -0.77, 57.61 0.65, 132.61 0 M132.61 0 C133.53 6.59, 132.89 17.86, 132.61 38 M132.61 0 C133.49 10.64, 132.06 20.13, 132.61 38 M132.61 38 C106.67 36.7, 79.83 39.41, 0 38 M132.61 38 C104.5 37.43, 77.75 38.06, 0 38 M0 38 C-0.44 31.25, -1.22 21.17, 0 0 M0 38 C1 26.53, -0.64 14.75, 0 0" stroke="#1e1e1e" stroke-width="2" fill="none"></path></g><g stroke-linecap="round" transform="translate(211.3203125 273.5) rotate(0 47.5 21.5)"><path d="M0 0 C29.69 -0.81, 61.99 -0.99, 95 0 M0 0 C34.3 -0.2, 70.55 -1.42, 95 0 M95 0 C93.47 15.95, 96.4 31.02, 95 43 M95 0 C95.93 13.21, 95.63 26.67, 95 43 M95 43 C60.42 43.65, 29.32 41.5, 0 43 M95 43 C60.13 43.66, 25.61 42.05, 0 43 M0 43 C1.72 29.6, 0.28 18.67, 0 0 M0 43 C0.08 32.03, -0.5 21.91, 0 0" stroke="#1e1e1e" stroke-width="2" fill="none"></path></g><g stroke-linecap="round" transform="translate(356.3203125 248) rotate(0 86.484375 48)"><path d="M0 0 C52.66 0.92, 106.66 2.62, 172.97 0 M0 0 C55.4 1.81, 109.14 1.62, 172.97 0 M172.97 0 C173.29 35.06, 172.43 68.21, 172.97 96 M172.97 0 C173.11 30.81, 172.74 61.04, 172.97 96 M172.97 96 C128.54 97.31, 81.61 96.75, 0 96 M172.97 96 C132.99 97.38, 90.51 96.29, 0 96 M0 96 C-1.04 63.43, 0.13 28.61, 0 0 M0 96 C-1.61 74.4, -1.65 54.95, 0 0" stroke="#1e1e1e" stroke-width="2" fill="none"></path></g><g stroke-linecap="round" transform="translate(149.265625 392) rotate(0 109.5546875 35.5)"><path d="M0 0 C49.22 -0.03, 100.22 1.75, 219.11 0 M0 0 C80.82 -1.51, 160.7 -0.35, 219.11 0 M219.11 0 C219.66 22.76, 218.92 47.52, 219.11 71 M219.11 0 C220.29 25.99, 220.28 53.57, 219.11 71 M219.11 71 C148.2 69.78, 75.1 70.23, 0 71 M219.11 71 C159.3 72.06, 97.75 73.07, 0 71 M0 71 C-0.21 51.4, -1.99 30.34, 0 0 M0 71 C-0.67 43.47, 0.62 17.82, 0 0" stroke="#1e1e1e" stroke-width="2" fill="none"></path></g><g stroke-linecap="round" transform="translate(170.03125 513) rotate(0 88.7890625 35.5)"><path d="M0 0 C38.42 1.65, 80.57 1.63, 177.58 0 M0 0 C43.07 -0.87, 88.28 -1.25, 177.58 0 M177.58 0 C176.73 15.51, 177.88 31.75, 177.58 71 M177.58 0 C176.14 27.98, 176.72 55.16, 177.58 71 M177.58 71 C129.21 74.14, 83.16 72.27, 0 71 M177.58 71 C118.72 72.43, 61.74 72.36, 0 71 M0 71 C0.35 41.62, -1.22 16.36, 0 0 M0 71 C-0.3 52.11, 0.64 32.2, 0 0" stroke="#1e1e1e" stroke-width="2" fill="none"></path></g><g stroke-linecap="round" transform="translate(129.203125 634) rotate(0 129.6171875 35.5)"><path d="M0 0 C59.24 2.04, 117.4 0.9, 259.23 0 M0 0 C89.36 2.09, 177.85 0.97, 259.23 0 M259.23 0 C260.08 21.64, 261.25 44.4, 259.23 71 M259.23 0 C260.2 16.43, 259.95 33.31, 259.23 71 M259.23 71 C178 68.11, 94.14 69.57, 0 71 M259.23 71 C158.35 69.85, 57.55 70.26, 0 71 M0 71 C-1.48 52.59, 1.32 36.99, 0 0 M0 71 C1.04 56.06, 0.45 40.98, 0 0" stroke="#1e1e1e" stroke-width="2" fill="none"></path></g><g stroke-linecap="round" transform="translate(16 783) rotate(0 64.2734375 21.5)"><path d="M0 0 C36.61 0.45, 71.44 -0.01, 128.55 0 M0 0 C50.53 -0.58, 99.12 -0.9, 128.55 0 M128.55 0 C128.66 17.02, 130.09 29.57, 128.55 43 M128.55 0 C127.71 15.64, 127.74 30.84, 128.55 43 M128.55 43 C76.11 43.43, 26.77 45.67, 0 43 M128.55 43 C78.75 42.51, 29.02 42.12, 0 43 M0 43 C-1.66 30.58, -0.53 13.39, 0 0 M0 43 C0.41 33.65, 0.28 24.18, 0 0" stroke="#1e1e1e" stroke-width="2" fill="none"></path></g><g stroke-linecap="round" transform="translate(194.546875 783) rotate(0 64.2734375 21.5)"><path d="M0 0 C29.02 -1.29, 56.28 1.55, 128.55 0 M0 0 C28.56 -1.56, 56.47 -0.1, 128.55 0 M128.55 0 C130.24 12.79, 127.38 23.26, 128.55 43 M128.55 0 C129.1 8.24, 128.96 18.21, 128.55 43 M128.55 43 C101.06 42.73, 76.28 44, 0 43 M128.55 43 C99.02 44.52, 69.37 43.8, 0 43 M0 43 C1.77 29.78, -1.51 15.95, 0 0 M0 43 C-0.35 34.02, -0.63 25.2, 0 0" stroke="#1e1e1e" stroke-width="2" fill="none"></path></g><g stroke-linecap="round" transform="translate(373.09375 783) rotate(0 64.2734375 21.5)"><path d="M0 0 C46.07 0.01, 96.04 -2.45, 128.55 0 M0 0 C46.77 -0.41, 95.87 -0.84, 128.55 0 M128.55 0 C130.34 12.58, 129.74 25.68, 128.55 43 M128.55 0 C127.99 15.49, 129.35 29.72, 128.55 43 M128.55 43 C81.53 44.47, 35.24 41.25, 0 43 M128.55 43 C93.3 42.03, 56.37 42.62, 0 43 M0 43 C-0.2 31.14, -1.37 20.97, 0 0 M0 43 C-0.12 27.82, -0.08 12.98, 0 0" stroke="#1e1e1e" stroke-width="2" fill="none"></path></g><g stroke-linecap="round" transform="translate(69.1328125 876) rotate(0 100.4140625 35.5)"><path d="M0 0 C64.59 2.55, 126.21 2.22, 200.83 0 M0 0 C70.9 2.11, 141.41 1.78, 200.83 0 M200.83 0 C200.14 23.5, 199.4 45.85, 200.83 71 M200.83 0 C201.23 19.36, 200.15 37.46, 200.83 71 M200.83 71 C154.97 73.13, 104.63 71.16, 0 71 M200.83 71 C131.14 72.93, 62.56 72.13, 0 71 M0 71 C-2.32 53.94, -2.41 41.18, 0 0 M0 71 C-0.33 49.57, -0.44 28.79, 0 0" stroke="#1e1e1e" stroke-width="2" fill="none"></path></g><g stroke-linecap="round" transform="translate(48.03125 1025) rotate(0 121.515625 35)"><path d="M0 0 C90.26 -2.19, 178.74 0.02, 243.03 0 M0 0 C81.31 -0.36, 161.82 0.11, 243.03 0 M243.03 0 C244.77 24.62, 244.76 52.4, 243.03 70 M243.03 0 C243.75 22.3, 243.47 45.76, 243.03 70 M243.03 70 C177.32 70.59, 108.3 72.51, 0 70 M243.03 70 C176.51 68.66, 109.06 68.01, 0 70 M0 70 C-1.53 41.9, 1.05 17.58, 0 0 M0 70 C0.01 49.6, 0.59 30.06, 0 0" stroke="#1e1e1e" stroke-width="2" fill="none"></path></g><g mask="url(#mask-AR8zCEztfOlaZfNRYJ2tv)" stroke-linecap="round"><g transform="translate(350.81275 59.5) rotate(0 0 33.35)"><path d="M1.07 -0.96 C1.31 5.06, 0.96 25.53, 0.85 36.64 C0.73 47.74, 0.53 60.52, 0.39 65.65 M0.17 1.14 C0.39 6.77, 0.4 23.97, 0.34 34.85 C0.29 45.73, -0.16 61.35, -0.17 66.41" stroke="#1e1e1e" stroke-width="2" fill="none"></path></g><g transform="translate(350.81275 59.5) rotate(0 0 33.35)"><path d="M-5.2 51.91 C-5.13 56.53, -1.84 59.53, -0.17 66.41 M-5.2 51.91 C-4.46 55.13, -2.95 58.65, -0.17 66.41" stroke="#1e1e1e" stroke-width="2" fill="none"></path></g><g transform="translate(350.81275 59.5) rotate(0 0 33.35)"><path d="M5.3 52.07 C2.78 56.75, 3.47 59.71, -0.17 66.41 M5.3 52.07 C3.81 55.31, 3.09 58.81, -0.17 66.41" stroke="#1e1e1e" stroke-width="2" fill="none"></path></g></g><mask id="mask-AR8zCEztfOlaZfNRYJ2tv"><rect x="0" y="0" fill="#fff" width="450.81275" height="227.2"></rect><rect x="286.594" y="85.5" fill="#000" width="128.4375" height="20" opacity="1"></rect></mask><g mask="url(#mask-ke-rYj1KXv91mYbf3_x44)" stroke-linecap="round"><g transform="translate(320.67675 170.5) rotate(0 -30.92800000000001 48.599999999999994)"><path d="M-0.96 0.85 C-11.25 7.15, -50.9 22.83, -61.22 38.89 C-71.54 54.95, -62.92 87.57, -62.91 97.21 M0.73 0.25 C-9.71 6.7, -51.62 20.59, -61.83 36.97 C-72.05 53.35, -60.78 88.44, -60.57 98.53" stroke="#1e1e1e" stroke-width="2" fill="none"></path></g><g transform="translate(320.67675 170.5) rotate(0 -30.92800000000001 48.599999999999994)"><path d="M-74.76 72.84 C-68.26 82.81, -64.16 88.8, -60.57 98.53 M-74.76 72.84 C-70.13 80.77, -65.28 89.2, -60.57 98.53" stroke="#1e1e1e" stroke-width="2" fill="none"></path></g><g transform="translate(320.67675 170.5) rotate(0 -30.92800000000001 48.599999999999994)"><path d="M-54.93 69.72 C-55.19 80.6, -57.88 87.66, -60.57 98.53 M-54.93 69.72 C-56.24 78.51, -57.35 87.87, -60.57 98.53" stroke="#1e1e1e" stroke-width="2" fill="none"></path></g></g><mask id="mask-ke-rYj1KXv91mYbf3_x44"><rect x="0" y="0" fill="#fff" width="482.5327500000001" height="368.7"></rect><rect x="192.39887500000003" y="199" fill="#000" width="132.84375" height="20" opacity="1"></rect></mask><g mask="url(#mask-tKzHXRsE0Kc_cOuVPm5JL)" stroke-linecap="round"><g transform="translate(380.94775 170.5) rotate(0 30.928500000000014 35.849999999999994)"><path d="M0.85 0.64 C11.04 7.04, 52.08 25.49, 62.25 37.45 C72.42 49.41, 62.01 66.65, 61.86 72.4" stroke="#1e1e1e" stroke-width="2.5" fill="none" stroke-dasharray="8 10"></path></g><g transform="translate(380.94775 170.5) rotate(0 30.928500000000014 35.849999999999994)"><path d="M60.37 55.87 C61.7 62.83, 59.94 68.73, 61.86 72.4" stroke="#1e1e1e" stroke-width="2.5" fill="none"></path></g><g transform="translate(380.94775 170.5) rotate(0 30.928500000000014 35.849999999999994)"><path d="M71.34 58.77 C68.43 64.68, 62.4 69.45, 61.86 72.4" stroke="#1e1e1e" stroke-width="2.5" fill="none"></path></g></g><mask id="mask-tKzHXRsE0Kc_cOuVPm5JL"><rect x="0" y="0" fill="#fff" width="542.80475" height="343.2"></rect><rect x="396.58209375000007" y="199" fill="#000" width="92.4453125" height="20" opacity="1"></rect></mask><g stroke-linecap="round"><g transform="translate(258.82075 317) rotate(0 0 34.599999999999994)"><path d="M0.64 0.39 C0.62 11.78, -1.06 57.82, -1.05 69.21 M-0.49 -0.45 C-0.06 11.07, 0.98 59.05, 1.11 70.75" stroke="#1e1e1e" stroke-width="2" fill="none"></path></g><g transform="translate(258.82075 317) rotate(0 0 34.599999999999994)"><path d="M-9.65 42.74 C-6.44 47.08, -4.71 56.15, 1.11 70.75 M-9.65 42.74 C-6.02 50.79, -4.68 57.71, 1.11 70.75" stroke="#1e1e1e" stroke-width="2" fill="none"></path></g><g transform="translate(258.82075 317) rotate(0 0 34.599999999999994)"><path d="M10.87 42.38 C9.58 46.91, 6.79 56.06, 1.11 70.75 M10.87 42.38 C9.22 50.56, 5.28 57.56, 1.11 70.75" stroke="#1e1e1e" stroke-width="2" fill="none"></path></g></g><mask></mask><g stroke-linecap="round"><g transform="translate(258.82075 463.5) rotate(0 0 21.849999999999994)"><path d="M0.18 -0.48 C0.11 6.81, 0.07 36.64, 0 44.02 M-0.39 0.46 C-0.56 7.57, -0.38 35.88, -0.43 43.22" stroke="#1e1e1e" stroke-width="2" fill="none"></path></g><g transform="translate(258.82075 463.5) rotate(0 0 21.849999999999994)"><path d="M-7.9 22.69 C-5.95 30.29, -1.72 37.47, -0.43 43.22 M-7.9 22.69 C-5.05 28.95, -2.79 35.37, -0.43 43.22" stroke="#1e1e1e" stroke-width="2" fill="none"></path></g><g transform="translate(258.82075 463.5) rotate(0 0 21.849999999999994)"><path d="M7.04 22.69 C3.45 30.31, 2.14 37.49, -0.43 43.22 M7.04 22.69 C5.09 29.01, 2.53 35.43, -0.43 43.22" stroke="#1e1e1e" stroke-width="2" fill="none"></path></g></g><mask></mask><g stroke-linecap="round"><g transform="translate(258.82075 584.5) rotate(0 0 21.850000000000023)"><path d="M-0.48 0 C-0.48 7.22, 0.22 36.17, 0.32 43.47 M0.27 -0.47 C0.21 6.8, 0.13 36.56, 0.06 44.04" stroke="#1e1e1e" stroke-width="2" fill="none"></path></g><g transform="translate(258.82075 584.5) rotate(0 0 21.850000000000023)"><path d="M-7.3 23.47 C-4.66 31.35, -2.5 38.25, 0.06 44.04 M-7.3 23.47 C-5.21 30.2, -3.08 36.68, 0.06 44.04" stroke="#1e1e1e" stroke-width="2" fill="none"></path></g><g transform="translate(258.82075 584.5) rotate(0 0 21.850000000000023)"><path d="M7.65 23.56 C5.01 31.34, 1.89 38.21, 0.06 44.04 M7.65 23.56 C5.02 30.33, 2.45 36.78, 0.06 44.04" stroke="#1e1e1e" stroke-width="2" fill="none"></path></g></g><mask></mask><g mask="url(#mask-CXa4Ygf9uD_XML2aYg2qb)" stroke-linecap="round"><g transform="translate(173.74075 705.5) rotate(0 -46.73349999999999 35.85000000000002)"><path d="M0.01 0.7 C-15.72 7.34, -78.43 26.77, -93.98 38.76 C-109.53 50.75, -93.54 67.3, -93.29 72.66 M-1.45 0.02 C-17.41 6.37, -79.78 24.98, -95.2 36.78 C-110.61 48.58, -94.55 65.01, -93.96 70.82" stroke="#1e1e1e" stroke-width="2" fill="none"></path></g><g transform="translate(173.74075 705.5) rotate(0 -46.73349999999999 35.85000000000002)"><path d="M-105.51 58.91 C-100.81 62.16, -97.57 67.08, -93.96 70.82 M-105.51 58.91 C-100.55 62.68, -96.16 67.7, -93.96 70.82" stroke="#1e1e1e" stroke-width="2" fill="none"></path></g><g transform="translate(173.74075 705.5) rotate(0 -46.73349999999999 35.85000000000002)"><path d="M-95.15 54.27 C-93.93 59.07, -94.14 65.53, -93.96 70.82 M-95.15 54.27 C-94.09 59.74, -93.64 66.52, -93.96 70.82" stroke="#1e1e1e" stroke-width="2" fill="none"></path></g></g><mask id="mask-CXa4Ygf9uD_XML2aYg2qb"><rect x="0" y="0" fill="#fff" width="367.20775" height="878.2"></rect><rect x="26.930000000000007" y="734" fill="#000" width="106.6875" height="20" opacity="1"></rect></mask><g stroke-linecap="round"><g transform="translate(258.82075 705.5) rotate(0 0 35.85000000000002)"><path d="M0.7 -0.51 C0.92 5.93, 0.22 26.47, 0.26 38.68 C0.3 50.89, 1.13 67.12, 0.96 72.73 M-0.39 -1.83 C-0.21 4.84, -0.73 28.19, -0.55 40.31 C-0.37 52.44, 0.76 65.96, 0.7 70.94" stroke="#1e1e1e" stroke-width="2" fill="none"></path></g><g transform="translate(258.82075 705.5) rotate(0 0 35.85000000000002)"><path d="M-5.48 55.53 C-4.87 59.12, -2.6 63.36, 0.7 70.94 M-5.48 55.53 C-4.01 61.91, -1.14 67.66, 0.7 70.94" stroke="#1e1e1e" stroke-width="2" fill="none"></path></g><g transform="translate(258.82075 705.5) rotate(0 0 35.85000000000002)"><path d="M5.87 55.16 C4.07 58.9, 3.93 63.22, 0.7 70.94 M5.87 55.16 C2.95 61.75, 1.44 67.64, 0.7 70.94" stroke="#1e1e1e" stroke-width="2" fill="none"></path></g></g><mask></mask><g stroke-linecap="round"><g transform="translate(343.89975 705.5) rotate(0 46.73350000000002 35.85000000000002)"><path d="M-0.51 0.26 C15.1 6.72, 77.81 27.68, 93.65 39.46 C109.48 51.24, 94.42 65.77, 94.5 70.95 M1.42 -0.65 C16.88 5.43, 77.32 25.76, 92.79 37.84 C108.27 49.93, 93.95 66.35, 94.28 71.87" stroke="#1e1e1e" stroke-width="2" fill="none"></path></g><g transform="translate(343.89975 705.5) rotate(0 46.73350000000002 35.85000000000002)"><path d="M93.75 55.28 C94.36 60.51, 95.49 66.68, 94.28 71.87 M93.75 55.28 C94.43 58.88, 94.35 62.84, 94.28 71.87" stroke="#1e1e1e" stroke-width="2" fill="none"></path></g><g transform="translate(343.89975 705.5) rotate(0 46.73350000000002 35.85000000000002)"><path d="M104.54 58.82 C101.89 62.94, 99.78 68.05, 94.28 71.87 M104.54 58.82 C102.64 61.47, 100 64.59, 94.28 71.87" stroke="#1e1e1e" stroke-width="2" fill="none"></path></g></g><mask></mask><g stroke-linecap="round"><g transform="translate(80.77375 826.5) rotate(0 15.500999999999998 23.013500000000022)"><path d="M0.26 0.18 C0.22 4.52, -4.62 17.78, 0.46 25.53 C5.54 33.29, 25.77 43.18, 30.75 46.71 M-1.06 -0.77 C-1.24 3.3, -5.7 16.37, 0.02 23.96 C5.74 31.54, 28.26 41.3, 33.25 44.72" stroke="#1e1e1e" stroke-width="2" fill="none"></path></g><g transform="translate(80.77375 826.5) rotate(0 15.500999999999998 23.013500000000022)"><path d="M14.19 41.77 C21.3 44.33, 29.5 42.63, 33.25 44.72 M14.19 41.77 C20.56 43.01, 27.38 43.94, 33.25 44.72" stroke="#1e1e1e" stroke-width="2" fill="none"></path></g><g transform="translate(80.77375 826.5) rotate(0 15.500999999999998 23.013500000000022)"><path d="M20.55 30.21 C25.33 36.93, 31.25 39.37, 33.25 44.72 M20.55 30.21 C24.53 35.61, 29.09 40.65, 33.25 44.72" stroke="#1e1e1e" stroke-width="2" fill="none"></path></g></g><mask></mask><g stroke-linecap="round"><g transform="translate(258.32075 826.5) rotate(0 -15.501500000000007 23.013500000000022)"><path d="M0.18 0.96 C0.52 4.88, 6.7 16.43, 1.53 23.75 C-3.63 31.06, -25.43 41.2, -30.82 44.83 M-1.18 0.42 C-0.87 4.45, 6.14 17.37, 1.13 24.89 C-3.88 32.4, -26.01 41.94, -31.23 45.52" stroke="#1e1e1e" stroke-width="2" fill="none"></path></g><g transform="translate(258.32075 826.5) rotate(0 -15.501500000000007 23.013500000000022)"><path d="M-18.57 30.98 C-20.25 36.4, -26.27 39.57, -31.23 45.52 M-18.57 30.98 C-20.72 33.48, -23.39 37.7, -31.23 45.52" stroke="#1e1e1e" stroke-width="2" fill="none"></path></g><g transform="translate(258.32075 826.5) rotate(0 -15.501500000000007 23.013500000000022)"><path d="M-12.18 42.53 C-15.53 44.99, -23.19 45.19, -31.23 45.52 M-12.18 42.53 C-15.68 42.68, -19.63 44.59, -31.23 45.52" stroke="#1e1e1e" stroke-width="2" fill="none"></path></g></g><mask></mask><g stroke-linecap="round"><g transform="translate(436.86675 826.5) rotate(0 -80.36800000000002 30.3245)"><path d="M0.96 1.03 C0.88 5.2, 26.98 15.13, -0.25 25.18 C-27.49 35.23, -135.52 55.35, -162.43 61.32 M0.01 0.53 C0.28 4.34, 28.76 13.61, 2.06 23.41 C-24.63 33.21, -132.86 52.85, -160.17 59.33" stroke="#1e1e1e" stroke-width="2" fill="none"></path></g><g transform="translate(436.86675 826.5) rotate(0 -80.36800000000002 30.3245)"><path d="M-134.66 43.53 C-141.12 47.56, -149.92 51.91, -160.17 59.33 M-134.66 43.53 C-144.19 49.41, -151.91 53.96, -160.17 59.33" stroke="#1e1e1e" stroke-width="2" fill="none"></path></g><g transform="translate(436.86675 826.5) rotate(0 -80.36800000000002 30.3245)"><path d="M-130.47 63.62 C-138.31 61.22, -148.46 59.11, -160.17 59.33 M-130.47 63.62 C-141.4 62.36, -150.62 59.76, -160.17 59.33" stroke="#1e1e1e" stroke-width="2" fill="none"></path></g></g><mask></mask><g mask="url(#mask-CjTU-Epry-ncS3BVwZe52)" stroke-linecap="round"><g transform="translate(169.54675 947.5) rotate(0 0 35.85000000000002)"><path d="M1.03 -0.75 C1.12 5.3, 0.74 25.31, 0.68 37.3 C0.62 49.3, 0.72 65.55, 0.67 71.21 M0.12 1.47 C0.09 7.54, 0.06 26.41, 0.09 38.21 C0.11 50.01, 0.14 66.62, 0.26 72.27" stroke="#1e1e1e" stroke-width="2" fill="none"></path></g><g transform="translate(169.54675 947.5) rotate(0 0 35.85000000000002)"><path d="M-5.6 56.73 C-4.67 62.51, -3.44 67.4, 0.26 72.27 M-5.6 56.73 C-3.88 61.59, -3.26 65.38, 0.26 72.27" stroke="#1e1e1e" stroke-width="2" fill="none"></path></g><g transform="translate(169.54675 947.5) rotate(0 0 35.85000000000002)"><path d="M5.76 56.6 C3.11 62.52, 0.77 67.45, 0.26 72.27 M5.76 56.6 C4.53 61.45, 2.21 65.27, 0.26 72.27" stroke="#1e1e1e" stroke-width="2" fill="none"></path></g></g><mask id="mask-CjTU-Epry-ncS3BVwZe52"><rect x="0" y="0" fill="#fff" width="269.54675" height="1120.2"></rect><rect x="120.43346875" y="976" fill="#000" width="98.2265625" height="20" opacity="1"></rect></mask><g transform="translate(326.8125 27.5) rotate(0 24 10)"><text x="24" y="0" font-family="Virgil, Segoe UI Emoji" font-size="16px" fill="#1e1e1e" text-anchor="middle" style="white-space: pre;" direction="ltr" dominant-baseline="text-before-edge">客户端</text></g><g transform="translate(306.83203125 141) rotate(0 43.98046875 10)"><text x="43.98046875" y="0" font-family="Virgil, Segoe UI Emoji" font-size="16px" fill="#1e1e1e" text-anchor="middle" style="white-space: pre;" direction="ltr" dominant-baseline="text-before-edge">QueryService</text></g><g transform="translate(226.8203125 285) rotate(0 32 10)"><text x="32" y="0" font-family="Virgil, Segoe UI Emoji" font-size="16px" fill="#1e1e1e" text-anchor="middle" style="white-space: pre;" direction="ltr" dominant-baseline="text-before-edge">同步执行</text></g><g transform="translate(385.0390625 266) rotate(0 57.765625 30)"><text x="57.765625" y="0" font-family="Virgil, Segoe UI Emoji" font-size="16px" fill="#1e1e1e" text-anchor="middle" style="white-space: pre;" direction="ltr" dominant-baseline="text-before-edge">异步</text><text x="57.765625" y="20" font-family="Virgil, Segoe UI Emoji" font-size="16px" fill="#1e1e1e" text-anchor="middle" style="white-space: pre;" direction="ltr" dominant-baseline="text-before-edge">建 search_jobs 行</text><text x="57.765625" y="40" font-family="Virgil, Segoe UI Emoji" font-size="16px" fill="#1e1e1e" text-anchor="middle" style="white-space: pre;" direction="ltr" dominant-baseline="text-before-edge">202 + job_id</text></g><g transform="translate(178.8203125 407.5) rotate(0 80 20)"><text x="80" y="0" font-family="Virgil, Segoe UI Emoji" font-size="16px" fill="#1e1e1e" text-anchor="middle" style="white-space: pre;" direction="ltr" dominant-baseline="text-before-edge">引擎组合</text><text x="80" y="20" font-family="Virgil, Segoe UI Emoji" font-size="16px" fill="#1e1e1e" text-anchor="middle" style="white-space: pre;" direction="ltr" dominant-baseline="text-before-edge">本地 → 分布式 → 联邦</text></g><g transform="translate(195.9375 528.5) rotate(0 62.8828125 20)"><text x="62.8828125" y="0" font-family="Virgil, Segoe UI Emoji" font-size="16px" fill="#1e1e1e" text-anchor="middle" style="white-space: pre;" direction="ltr" dominant-baseline="text-before-edge">FileMeta 分区裁剪</text><text x="62.8828125" y="20" font-family="Virgil, Segoe UI Emoji" font-size="16px" fill="#1e1e1e" text-anchor="middle" style="white-space: pre;" direction="ltr" dominant-baseline="text-before-edge">+ 全文 MATCH</text></g><g transform="translate(168.1796875 649.5) rotate(0 90.640625 20)"><text x="90.640625" y="0" font-family="Virgil, Segoe UI Emoji" font-size="16px" fill="#1e1e1e" text-anchor="middle" style="white-space: pre;" direction="ltr" dominant-baseline="text-before-edge">分片</text><text x="90.640625" y="20" font-family="Virgil, Segoe UI Emoji" font-size="16px" fill="#1e1e1e" text-anchor="middle" style="white-space: pre;" direction="ltr" dominant-baseline="text-before-edge">按 object_key 哈希 % peers</text></g><g transform="translate(37.84375 794.5) rotate(0 42.4296875 10)"><text x="42.4296875" y="0" font-family="Virgil, Segoe UI Emoji" font-size="16px" fill="#1e1e1e" text-anchor="middle" style="white-space: pre;" direction="ltr" dominant-baseline="text-before-edge">Querier 对等</text></g><g transform="translate(216.390625 794.5) rotate(0 42.4296875 10)"><text x="42.4296875" y="0" font-family="Virgil, Segoe UI Emoji" font-size="16px" fill="#1e1e1e" text-anchor="middle" style="white-space: pre;" direction="ltr" dominant-baseline="text-before-edge">Querier 对等</text></g><g transform="translate(394.9375 794.5) rotate(0 42.4296875 10)"><text x="42.4296875" y="0" font-family="Virgil, Segoe UI Emoji" font-size="16px" fill="#1e1e1e" text-anchor="middle" style="white-space: pre;" direction="ltr" dominant-baseline="text-before-edge">Querier 对等</text></g><g transform="translate(90.22265625 891.5) rotate(0 79.32421875 20)"><text x="79.32421875" y="0" font-family="Virgil, Segoe UI Emoji" font-size="16px" fill="#1e1e1e" text-anchor="middle" style="white-space: pre;" direction="ltr" dominant-baseline="text-before-edge">协调端</text><text x="79.32421875" y="20" font-family="Virgil, Segoe UI Emoji" font-size="16px" fill="#1e1e1e" text-anchor="middle" style="white-space: pre;" direction="ltr" dominant-baseline="text-before-edge">UNION ALL → 内存表</text></g><g transform="translate(87.32421875 1040) rotate(0 82.22265625 20)"><text x="82.22265625" y="0" font-family="Virgil, Segoe UI Emoji" font-size="16px" fill="#1e1e1e" text-anchor="middle" style="white-space: pre;" direction="ltr" dominant-baseline="text-before-edge">QueryResult</text><text x="82.22265625" y="20" font-family="Virgil, Segoe UI Emoji" font-size="16px" fill="#1e1e1e" text-anchor="middle" style="white-space: pre;" direction="ltr" dominant-baseline="text-before-edge">columns · rows · took_ms</text></g><g transform="translate(286.594 85.5) rotate(0 64.7104103325754 6.724165479540822)"><text x="64.21875" y="0" font-family="Virgil, Segoe UI Emoji" font-size="16px" fill="#1e1e1e" text-anchor="middle" style="white-space: pre;" direction="ltr" dominant-baseline="text-before-edge">POST /api/v1/query</text></g><g transform="translate(192.398875 199) rotate(0 95.4959406141775 20.886817950066174)"><text x="66.421875" y="0" font-family="Virgil, Segoe UI Emoji" font-size="16px" fill="#1e1e1e" text-anchor="middle" style="white-space: pre;" direction="ltr" dominant-baseline="text-before-edge">Prefer: respond-sync</text></g><g transform="translate(396.58209375 199) rotate(0 18.140458720272818 8.018748100474468)"><text x="46.22265625" y="0" font-family="Virgil, Segoe UI Emoji" font-size="16px" fill="#1e1e1e" text-anchor="middle" style="white-space: pre;" direction="ltr" dominant-baseline="text-before-edge">异步 / 超阈值</text></g><g transform="translate(26.930000000000007 734) rotate(0 95.88169560682485 7.842783105522415)"><text x="53.34375" y="0" font-family="Virgil, Segoe UI Emoji" font-size="16px" fill="#1e1e1e" text-anchor="middle" style="white-space: pre;" direction="ltr" dominant-baseline="text-before-edge">扫描 RPC :5082</text></g><g transform="translate(120.43346875 976) rotate(0 49.674984859636254 7.255844086110642)"><text x="49.11328125" y="0" font-family="Virgil, Segoe UI Emoji" font-size="16px" fill="#1e1e1e" text-anchor="middle" style="white-space: pre;" direction="ltr" dominant-baseline="text-before-edge">执行完整 SQL</text></g></svg>