<svg version="1.1" xmlns="http://www.w3.org/2000/svg" viewBox="0 0 823.74571875 846.7324589863074" filter="invert(93%) hue-rotate(180deg)">
  <!-- svg-source:excalidraw -->
  
  <defs>
    <style class="style-fonts">
      @font-face {
        font-family: "Virgil";
        src: url("https://unpkg.com/@excalidraw/excalidraw@undefined/dist/excalidraw-assets/Virgil.woff2");
      }
      @font-face {
        font-family: "Cascadia";
        src: url("https://unpkg.com/@excalidraw/excalidraw@undefined/dist/excalidraw-assets/Cascadia.woff2");
      }
      @font-face {
        font-family: "Assistant";
        src: url("https://unpkg.com/@excalidraw/excalidraw@undefined/dist/excalidraw-assets/Assistant-Regular.woff2");
      }
    </style>
    
  </defs>
  <g stroke-linecap="round" transform="translate(160.03478124999998 16) rotate(0 68.0703125 35)"><path d="M0 0 C50.85 -2.75, 105.28 0.58, 136.14 0 M0 0 C45.99 -0.66, 91.09 0.07, 136.14 0 M136.14 0 C136.79 25.1, 133.92 48.96, 136.14 70 M136.14 0 C136.5 22.48, 135.34 44.98, 136.14 70 M136.14 70 C101.67 71.39, 67.65 70.17, 0 70 M136.14 70 C102.15 68.66, 66.35 68.98, 0 70 M0 70 C-1.56 45.28, -0.95 22.01, 0 0 M0 70 C-0.47 55.86, -0.85 39.35, 0 0" stroke="#1e1e1e" stroke-width="2" fill="none"></path></g><g stroke-linecap="round" transform="translate(160.90196874999998 155) rotate(0 67.203125 35)"><path d="M0 0 C41.11 1.54, 87.17 1.72, 134.41 0 M0 0 C50.11 -0.61, 101.06 -0.06, 134.41 0 M134.41 0 C134.87 15.81, 134.05 35.89, 134.41 70 M134.41 0 C133.68 18.38, 133.41 37.4, 134.41 70 M134.41 70 C103.59 67.42, 71.23 68.3, 0 70 M134.41 70 C92.82 69.62, 52.48 70.96, 0 70 M0 70 C-1.62 51.26, -1.2 33.39, 0 0 M0 70 C1.23 48.5, -0.41 29.57, 0 0" stroke="#1e1e1e" stroke-width="2" fill="none"></path></g><g stroke-linecap="round" transform="translate(184.52696874999998 299) rotate(0 43.578125 35)"><path d="M0 0 C33.92 2.42, 67.51 2.18, 87.16 0 M0 0 C29.63 0.71, 59.82 -0.37, 87.16 0 M87.16 0 C85.61 21.11, 88 42.47, 87.16 70 M87.16 0 C86.95 16, 87 32.41, 87.16 70 M87.16 70 C52.24 69.22, 20.01 70.18, 0 70 M87.16 70 C62.69 68.58, 40.51 68.68, 0 70 M0 70 C-0.64 42.45, -1.08 16.01, 0 0 M0 70 C-0.53 53.05, 1.15 38.48, 0 0" stroke="#1e1e1e" stroke-width="2" fill="none"></path></g><g stroke-linecap="round" transform="translate(74.530875 733.9336457413233) rotate(0 48.75 37.932586669921875)"><path d="M0 0 C23.5 0.44, 45.06 0.55, 97.5 0 M0 0 C34.14 0.54, 66.58 0.09, 97.5 0 M97.5 0 C97.24 26.99, 97.08 51.7, 97.5 75.87 M97.5 0 C96.74 26.48, 96.6 54.87, 97.5 75.87 M97.5 75.87 C72.86 74.04, 50.1 74.38, 0 75.87 M97.5 75.87 C63.48 75.32, 30.17 75.78, 0 75.87 M0 75.87 C-0.22 58.64, 0.28 43.5, 0 0 M0 75.87 C-1.46 57.74, 0.01 38.5, 0 0" stroke="#1e1e1e" stroke-width="2" fill="none"></path></g><g stroke-linecap="round" transform="translate(321.42540625 443) rotate(0 47.5 35.5)"><path d="M0 0 C21.52 0.66, 42.45 0.06, 95 0 M0 0 C27.94 -1.05, 54.9 -0.09, 95 0 M95 0 C94.83 22.2, 93.06 46.68, 95 71 M95 0 C94.03 18.6, 95.37 38, 95 71 M95 71 C64.09 70.61, 34.47 71.42, 0 71 M95 71 C75.75 69.91, 56.57 69.46, 0 71 M0 71 C-1.29 53.24, -0.95 34.69, 0 0 M0 71 C1.43 45.05, 1.12 18.61, 0 0" stroke="#1e1e1e" stroke-width="2" fill="none"></path></g><g stroke-linecap="round" transform="translate(293.77696875 592) rotate(0 75.1484375 21.5)"><path d="M0 0 C50.4 0.28, 98.73 -0.75, 150.3 0 M0 0 C44.37 -0.72, 90.17 -0.58, 150.3 0 M150.3 0 C149.63 7.57, 151.34 17.12, 150.3 43 M150.3 0 C149.38 11.14, 149.49 20.83, 150.3 43 M150.3 43 C118.89 41.69, 88.23 40.43, 0 43 M150.3 43 C119.02 44.43, 87.8 43.06, 0 43 M0 43 C0.02 31.5, -0.88 24.3, 0 0 M0 43 C0.95 34.4, 1.03 24.61, 0 0" stroke="#1e1e1e" stroke-width="2" fill="none"></path></g><g stroke-linecap="round" transform="translate(258.02696875 714.8827868412544) rotate(0 110.8984375 56.983436584472656)"><path d="M0 0 C86.23 -0.65, 170.88 -1.44, 221.8 0 M0 0 C80.19 1.33, 160.42 0.09, 221.8 0 M221.8 0 C220.81 32.97, 221.52 62.49, 221.8 113.97 M221.8 0 C221.97 27.38, 221.32 54.99, 221.8 113.97 M221.8 113.97 C164.9 114.75, 107.44 112.37, 0 113.97 M221.8 113.97 C169.51 112.16, 115.32 112.42, 0 113.97 M0 113.97 C-0.42 82.25, 2.47 50.77, 0 0 M0 113.97 C-0.42 90.7, -1.12 66.08, 0 0" stroke="#1e1e1e" stroke-width="2" fill="none"></path></g><g stroke-linecap="round" transform="translate(529.82384375 712.9999989643347) rotate(0 138.9609375 58.86623001098633)"><path d="M0 0 C93.67 -1.04, 185.96 0.08, 277.92 0 M0 0 C98.39 0, 195.29 -0.32, 277.92 0 M277.92 0 C278.71 37.72, 276.39 75.47, 277.92 117.73 M277.92 0 C276.55 28.98, 276.21 57.2, 277.92 117.73 M277.92 117.73 C208.31 115.65, 135.92 116.15, 0 117.73 M277.92 117.73 C183.14 119.15, 89.33 119.31, 0 117.73 M0 117.73 C-0.95 94.18, -1.71 65.89, 0 0 M0 117.73 C-0.03 72.82, -0.74 29.02, 0 0" stroke="#1e1e1e" stroke-width="2" fill="none"></path></g><g mask="url(#mask-syVKlzoL0Og9mBCvOgNa2)" stroke-linecap="round"><g transform="translate(191.938375 82.5) rotate(0 -20.528000000000006 34.227000000000004)"><path d="M0.53 -0.14 C-6.47 5.9, -40.27 25.4, -41.08 36.73 C-41.88 48.07, -10.35 62.5, -4.31 67.89 M-0.66 -1.25 C-7.89 4.4, -41.35 23.3, -42.03 35 C-42.72 46.69, -10.99 63.61, -4.74 68.91" stroke="#1e1e1e" stroke-width="2" fill="none"></path></g><g transform="translate(191.938375 82.5) rotate(0 -20.528000000000006 34.227000000000004)"><path d="M-28.27 62.93 C-19.68 65.02, -9.44 68.35, -4.74 68.91 M-28.27 62.93 C-22.11 63.38, -16.58 66.09, -4.74 68.91" stroke="#1e1e1e" stroke-width="2" fill="none"></path></g><g transform="translate(191.938375 82.5) rotate(0 -20.528000000000006 34.227000000000004)"><path d="M-18.92 49.2 C-13.77 56.47, -7.02 64.92, -4.74 68.91 M-18.92 49.2 C-15.11 53.17, -11.94 59.35, -4.74 68.91" stroke="#1e1e1e" stroke-width="2" fill="none"></path></g></g><mask id="mask-syVKlzoL0Og9mBCvOgNa2"><rect x="0" y="0" fill="#fff" width="332.494375" height="251.954"></rect><rect x="105.538625" y="108.5" fill="#000" width="90.6875" height="20" opacity="1"></rect></mask><g mask="url(#mask-9UcrT8h3gZrYIVpqSjInn)" stroke-linecap="round"><g transform="translate(228.10537499999998 221.5) rotate(0 0 35.849999999999994)"><path d="M-0.14 -0.02 C-0.1 6.41, 0.81 27.16, 0.73 39.13 C0.66 51.1, -0.54 66.32, -0.57 71.79 M-1.67 -1.08 C-1.76 4.96, 0.17 24.97, 0.17 37.34 C0.18 49.71, -1.79 67.18, -1.63 73.15" stroke="#1e1e1e" stroke-width="2" fill="none"></path></g><g transform="translate(228.10537499999998 221.5) rotate(0 0 35.849999999999994)"><path d="M-6.68 57.34 C-4.92 63.74, -2.3 67.32, -1.63 73.15 M-6.68 57.34 C-5.84 62.02, -3.29 66.82, -1.63 73.15" stroke="#1e1e1e" stroke-width="2" fill="none"></path></g><g transform="translate(228.10537499999998 221.5) rotate(0 0 35.849999999999994)"><path d="M4.66 57.79 C2.56 64.03, 1.32 67.45, -1.63 73.15 M4.66 57.79 C2.02 62.36, 1.08 67.01, -1.63 73.15" stroke="#1e1e1e" stroke-width="2" fill="none"></path></g></g><mask id="mask-9UcrT8h3gZrYIVpqSjInn"><rect x="0" y="0" fill="#fff" width="328.105375" height="394.2"></rect><rect x="188.10537499999998" y="250" fill="#000" width="80" height="20" opacity="1"></rect></mask><g mask="url(#mask-8EqPw4cbpkUkat9Xs75Ag)" stroke-linecap="round"><g transform="translate(264.27237499999995 154.5) rotate(0 20.527500000000003 -34.227)"><path d="M-0.02 0.73 C6.84 -5.34, 40.85 -25.13, 41.69 -36.57 C42.53 -48, 11.11 -62.36, 5.03 -67.86" stroke="#1e1e1e" stroke-width="2.5" fill="none" stroke-dasharray="8 10"></path></g><g transform="translate(264.27237499999995 154.5) rotate(0 20.527500000000003 -34.227)"><path d="M28.67 -62.34 C21.77 -63.19, 11.47 -65.99, 5.03 -67.86" stroke="#1e1e1e" stroke-width="2.5" fill="none"></path></g><g transform="translate(264.27237499999995 154.5) rotate(0 20.527500000000003 -34.227)"><path d="M19.59 -48.44 C15.83 -54.07, 8.65 -61.65, 5.03 -67.86" stroke="#1e1e1e" stroke-width="2.5" fill="none"></path></g></g><mask id="mask-8EqPw4cbpkUkat9Xs75Ag"><rect x="0" y="0" fill="#fff" width="404.82737499999996" height="323.954"></rect><rect x="247.49924999999996" y="108.5" fill="#000" width="115.65625" height="20" opacity="1"></rect></mask><g mask="url(#mask-FKPLbU8bkw50EsaKf1Yzl)" stroke-linecap="round"><g transform="translate(185.027375 353.401) rotate(0 -53.521499999999996 187.97400000000002)"><path d="M0.73 0.63 C-17.18 9.08, -89.74 29.9, -107.61 50.69 C-125.47 71.47, -106.36 100.57, -106.45 125.35 C-106.55 150.13, -108.13 176.95, -108.18 199.35 C-108.22 221.75, -106.8 239.43, -106.74 259.75 C-106.68 280.07, -111.87 302.03, -107.81 321.28 C-103.74 340.52, -86.54 366.23, -82.35 375.23 M-0.34 -0.08 C-18.45 8.58, -91.09 31.13, -108.86 52.27 C-126.62 73.42, -106.96 102.12, -106.91 126.8 C-106.85 151.47, -108.33 178.13, -108.52 200.33 C-108.71 222.52, -108.34 239.92, -108.05 259.96 C-107.77 280, -111.16 301.06, -106.8 320.59 C-102.43 340.13, -86.29 368.17, -81.88 377.17" stroke="#1e1e1e" stroke-width="2" fill="none"></path></g><g transform="translate(185.027375 353.401) rotate(0 -53.521499999999996 187.97400000000002)"><path d="M-103.99 356.89 C-96.56 361.66, -91.09 369.44, -81.88 377.17 M-103.99 356.89 C-96.84 363.15, -90.64 370.51, -81.88 377.17" stroke="#1e1e1e" stroke-width="2" fill="none"></path></g><g transform="translate(185.027375 353.401) rotate(0 -53.521499999999996 187.97400000000002)"><path d="M-85.78 347.43 C-83.61 355.04, -83.39 365.55, -81.88 377.17 M-85.78 347.43 C-84.56 356.69, -84.2 367.08, -81.88 377.17" stroke="#1e1e1e" stroke-width="2" fill="none"></path></g></g><mask id="mask-FKPLbU8bkw50EsaKf1Yzl"><rect x="0" y="0" fill="#fff" width="391.570375" height="830.349"></rect><rect x="16.00000000000003" y="543" fill="#000" width="123.96875" height="20" opacity="1"></rect></mask><g mask="url(#mask-Fl0J57uHx9PLscPOX3BHG)" stroke-linecap="round"><g transform="translate(271.68337499999996 354.781) rotate(0 48.62100000000001 41.20949999999999)"><path d="M0.63 -0.57 C16.86 7.61, 81.19 36.17, 97.33 49.81 C113.48 63.45, 97.55 75.8, 97.49 81.29 M-0.5 1.75 C15.58 9.51, 80.21 34.62, 96.43 48 C112.66 61.37, 96.74 76.01, 96.86 82.01" stroke="#1e1e1e" stroke-width="2" fill="none"></path></g><g transform="translate(271.68337499999996 354.781) rotate(0 48.62100000000001 41.20949999999999)"><path d="M97.26 65.41 C96.46 70.49, 97.94 75.66, 96.86 82.01 M97.26 65.41 C96.9 68.3, 97.53 72, 96.86 82.01" stroke="#1e1e1e" stroke-width="2" fill="none"></path></g><g transform="translate(271.68337499999996 354.781) rotate(0 48.62100000000001 41.20949999999999)"><path d="M107.83 69.56 C103.85 73.45, 102.18 77.39, 96.86 82.01 M107.83 69.56 C105.31 71.62, 103.76 74.47, 96.86 82.01" stroke="#1e1e1e" stroke-width="2" fill="none"></path></g></g><mask id="mask-Fl0J57uHx9PLscPOX3BHG"><rect x="0" y="0" fill="#fff" width="468.925375" height="538.2"></rect><rect x="342.925375" y="393.99999999999994" fill="#000" width="52" height="20" opacity="1"></rect></mask><g mask="url(#mask-kdghAecxfv_k2ogAjQodQ)" stroke-linecap="round"><g transform="translate(368.925375 514.5) rotate(0 0 35.85000000000002)"><path d="M-0.57 0.09 C-0.59 6.44, 0.68 26.86, 0.59 38.75 C0.5 50.64, -1.08 66.02, -1.13 71.45 M1.34 -0.91 C1.14 5.01, -0.02 24.5, -0.05 36.76 C-0.08 49.02, 1.04 66.72, 1.17 72.64" stroke="#1e1e1e" stroke-width="2" fill="none"></path></g><g transform="translate(368.925375 514.5) rotate(0 0 35.85000000000002)"><path d="M-5.13 57.28 C-2.65 63.68, -0.16 66.84, 1.17 72.64 M-5.13 57.28 C-3.86 62.06, -1.81 65.39, 1.17 72.64" stroke="#1e1e1e" stroke-width="2" fill="none"></path></g><g transform="translate(368.925375 514.5) rotate(0 0 35.85000000000002)"><path d="M6.21 56.83 C4.6 63.33, 3 66.66, 1.17 72.64 M6.21 56.83 C4.32 61.7, 3.2 65.15, 1.17 72.64" stroke="#1e1e1e" stroke-width="2" fill="none"></path></g></g><mask id="mask-kdghAecxfv_k2ogAjQodQ"><rect x="0" y="0" fill="#fff" width="468.925375" height="687.2"></rect><rect x="302.7066249999999" y="543" fill="#000" width="132.4375" height="20" opacity="1"></rect></mask><g mask="url(#mask-WyV4Z1HNTGDP9kyQ15nem)" stroke-linecap="round"><g transform="translate(368.925375 635.5) rotate(0 0 36.791499999999985)"><path d="M0.09 0.59 C0.03 6.91, 0.31 25.15, 0.25 37.37 C0.19 49.58, -0.15 67.98, -0.25 73.89 M-1.32 -0.15 C-1.58 6.33, -0.6 25.73, -0.57 38.31 C-0.54 50.9, -1.19 69.49, -1.14 75.36" stroke="#1e1e1e" stroke-width="2" fill="none"></path></g><g transform="translate(368.925375 635.5) rotate(0 0 36.791499999999985)"><path d="M-6.92 58.8 C-4.1 65, -4.58 70.11, -1.14 75.36 M-6.92 58.8 C-4.6 63.97, -3.73 69.13, -1.14 75.36" stroke="#1e1e1e" stroke-width="2" fill="none"></path></g><g transform="translate(368.925375 635.5) rotate(0 0 36.791499999999985)"><path d="M5.07 58.96 C3.67 65.11, -1.04 70.17, -1.14 75.36 M5.07 58.96 C3.5 64, 0.46 69.11, -1.14 75.36" stroke="#1e1e1e" stroke-width="2" fill="none"></path></g></g><mask id="mask-WyV4Z1HNTGDP9kyQ15nem"><rect x="0" y="0" fill="#fff" width="468.925375" height="810.083"></rect><rect x="292.4136562499999" y="664" fill="#000" width="153.0234375" height="20" opacity="1"></rect></mask><g stroke-linecap="round"><g transform="translate(444.073375 629.162) rotate(0 112.3555 39.019000000000005)"><path d="M0.59 0.25 C37.95 7.67, 186.17 31.68, 223.58 44.59 C260.98 57.5, 224.95 72, 225.01 77.69 M-0.56 -0.67 C37.2 6.93, 188.2 32.75, 225.7 46 C263.19 59.25, 224.72 73.74, 224.41 78.83" stroke="#1e1e1e" stroke-width="2" fill="none"></path></g><g transform="translate(444.073375 629.162) rotate(0 112.3555 39.019000000000005)"><path d="M232.12 64.13 C230.53 66.31, 227.89 72.01, 224.41 78.83 M232.12 64.13 C229.7 67.66, 227.39 71.68, 224.41 78.83" stroke="#1e1e1e" stroke-width="2" fill="none"></path></g><g transform="translate(444.073375 629.162) rotate(0 112.3555 39.019000000000005)"><path d="M239.76 72.53 C236.23 72.63, 231.66 76.2, 224.41 78.83 M239.76 72.53 C235.33 73.83, 230.94 75.57, 224.41 78.83" stroke="#1e1e1e" stroke-width="2" fill="none"></path></g></g><mask></mask><g mask="url(#mask-D13Fv9dt1UB6FU6-y-tRt)" stroke-linecap="round"><g transform="translate(297.227375 635.5) rotate(0 -76.843 46.92450000000002)"><path d="M0.25 -1.13 C-21.25 5.24, -103.18 23.1, -128.9 38.8 C-154.61 54.51, -150.01 83.97, -154.03 93.09" stroke="#1e1e1e" stroke-width="2.5" fill="none" stroke-dasharray="8 10"></path></g><g transform="translate(297.227375 635.5) rotate(0 -76.843 46.92450000000002)"><path d="M-159.04 63.51 C-159.25 72.18, -155.31 81.11, -154.03 93.09" stroke="#1e1e1e" stroke-width="2.5" fill="none"></path></g><g transform="translate(297.227375 635.5) rotate(0 -76.843 46.92450000000002)"><path d="M-138.86 67.21 C-145.29 74.78, -147.56 82.57, -154.03 93.09" stroke="#1e1e1e" stroke-width="2.5" fill="none"></path></g></g><mask id="mask-D13Fv9dt1UB6FU6-y-tRt"><rect x="0" y="0" fill="#fff" width="551.913375" height="830.349"></rect><rect x="112.30003124999996" y="664" fill="#000" width="112.5546875" height="20" opacity="1"></rect></mask><g transform="translate(185.43712499999998 31) rotate(0 42.66796875 20)"><text x="42.66796875" y="0" font-family="Virgil, Segoe UI Emoji" font-size="16px" fill="#1e1e1e" text-anchor="middle" style="white-space: pre;" direction="ltr" dominant-baseline="text-before-edge">客户端</text><text x="42.66796875" y="20" font-family="Virgil, Segoe UI Emoji" font-size="16px" fill="#1e1e1e" text-anchor="middle" style="white-space: pre;" direction="ltr" dominant-baseline="text-before-edge">:5080 / :5082</text></g><g transform="translate(182.10509374999998 170) rotate(0 46 20)"><text x="46" y="0" font-family="Virgil, Segoe UI Emoji" font-size="16px" fill="#1e1e1e" text-anchor="middle" style="white-space: pre;" direction="ltr" dominant-baseline="text-before-edge">Router</text><text x="46" y="20" font-family="Virgil, Segoe UI Emoji" font-size="16px" fill="#1e1e1e" text-anchor="middle" style="white-space: pre;" direction="ltr" dominant-baseline="text-before-edge">无状态 · 限流</text></g><g transform="translate(202.33946874999998 314) rotate(0 25.765625 20)"><text x="25.765625" y="0" font-family="Virgil, Segoe UI Emoji" font-size="16px" fill="#1e1e1e" text-anchor="middle" style="white-space: pre;" direction="ltr" dominant-baseline="text-before-edge">Ingester</text><text x="25.765625" y="20" font-family="Virgil, Segoe UI Emoji" font-size="16px" fill="#1e1e1e" text-anchor="middle" style="white-space: pre;" direction="ltr" dominant-baseline="text-before-edge">有状态</text></g><g transform="translate(87.95275 761.8662324112452) rotate(0 35.328125 10)"><text x="35.328125" y="0" font-family="Virgil, Segoe UI Emoji" font-size="16px" fill="#1e1e1e" text-anchor="middle" style="white-space: pre;" direction="ltr" dominant-baseline="text-before-edge">WAL 落盘</text></g><g transform="translate(336.92540625 458.5) rotate(0 32 20)"><text x="32" y="0" font-family="Virgil, Segoe UI Emoji" font-size="16px" fill="#1e1e1e" text-anchor="middle" style="white-space: pre;" direction="ltr" dominant-baseline="text-before-edge">内存缓冲</text><text x="32" y="20" font-family="Virgil, Segoe UI Emoji" font-size="16px" fill="#1e1e1e" text-anchor="middle" style="white-space: pre;" direction="ltr" dominant-baseline="text-before-edge">按 seq</text></g><g transform="translate(317.36290625 603.5) rotate(0 51.5625 10)"><text x="51.5625" y="0" font-family="Virgil, Segoe UI Emoji" font-size="16px" fill="#1e1e1e" text-anchor="middle" style="white-space: pre;" direction="ltr" dominant-baseline="text-before-edge">后台 flush 循环</text></g><g transform="translate(299.6168125 751.8662234257271) rotate(0 69.30859375 20)"><text x="69.30859375" y="0" font-family="Virgil, Segoe UI Emoji" font-size="16px" fill="#1e1e1e" text-anchor="middle" style="white-space: pre;" direction="ltr" dominant-baseline="text-before-edge">对象存储</text><text x="69.30859375" y="20" font-family="Virgil, Segoe UI Emoji" font-size="16px" fill="#1e1e1e" text-anchor="middle" style="white-space: pre;" direction="ltr" dominant-baseline="text-before-edge">local / s3 / azure / gcs</text></g><g transform="translate(576.8043125 751.8662289753211) rotate(0 91.98046875 20)"><text x="91.98046875" y="0" font-family="Virgil, Segoe UI Emoji" font-size="16px" fill="#1e1e1e" text-anchor="middle" style="white-space: pre;" direction="ltr" dominant-baseline="text-before-edge">Postgres：FileMeta</text><text x="91.98046875" y="20" font-family="Virgil, Segoe UI Emoji" font-size="16px" fill="#1e1e1e" text-anchor="middle" style="white-space: pre;" direction="ltr" dominant-baseline="text-before-edge">time_range · rows · min/max</text></g><g transform="translate(105.53862499999997 108.5) rotate(0 65.6404131379676 7.826274986311795)"><text x="45.34375" y="0" font-family="Virgil, Segoe UI Emoji" font-size="16px" fill="#1e1e1e" text-anchor="middle" style="white-space: pre;" direction="ltr" dominant-baseline="text-before-edge">HTTP / gRPC</text></g><g transform="translate(188.10537499999998 250) rotate(0 39.53353129935378 7.539378908928484)"><text x="40" y="0" font-family="Virgil, Segoe UI Emoji" font-size="16px" fill="#1e1e1e" text-anchor="middle" style="white-space: pre;" direction="ltr" dominant-baseline="text-before-edge">一致性哈希</text></g><g transform="translate(247.49924999999996 108.5) rotate(0 37.61489511247868 12.435220390513543)"><text x="57.828125" y="0" font-family="Virgil, Segoe UI Emoji" font-size="16px" fill="#1e1e1e" text-anchor="middle" style="white-space: pre;" direction="ltr" dominant-baseline="text-before-edge">429 + Retry-After</text></g><g transform="translate(16 543) rotate(0 111.2519844402437 -1.0542144390381338)"><text x="61.984375" y="0" font-family="Virgil, Segoe UI Emoji" font-size="16px" fill="#1e1e1e" text-anchor="middle" style="white-space: pre;" direction="ltr" dominant-baseline="text-before-edge">1 · 写 WAL (fsync)</text></g><g transform="translate(342.9253749999999 394) rotate(0 -19.209471321130337 1.5024668045639942)"><text x="26" y="0" font-family="Virgil, Segoe UI Emoji" font-size="16px" fill="#1e1e1e" text-anchor="middle" style="white-space: pre;" direction="ltr" dominant-baseline="text-before-edge">2 · 缓冲</text></g><g transform="translate(302.7066249999999 543) rotate(0 66.32095591948368 7.365701960977219)"><text x="66.21875" y="0" font-family="Virgil, Segoe UI Emoji" font-size="16px" fill="#1e1e1e" text-anchor="middle" style="white-space: pre;" direction="ltr" dominant-baseline="text-before-edge">flush_interval / 阈值</text></g><g transform="translate(292.4136562499999 664) rotate(0 75.95784237915339 9.107372981175786)"><text x="76.51171875" y="0" font-family="Virgil, Segoe UI Emoji" font-size="16px" fill="#1e1e1e" text-anchor="middle" style="white-space: pre;" direction="ltr" dominant-baseline="text-before-edge">snapshot：列式 + 侧车</text></g><g transform="translate(112.30003124999999 664) rotate(0 108.03532574658097 17.476456959441293)"><text x="56.27734375" y="0" font-family="Virgil, Segoe UI Emoji" font-size="16px" fill="#1e1e1e" text-anchor="middle" style="white-space: pre;" direction="ltr" dominant-baseline="text-before-edge">seal + 截断 WAL</text></g></svg>